Coordinates
version=1
nRows=15
nColumns=19
inDegrees=yes

Units are S.I. units (second, meters, Newtons, ...)
If the header above contains a line with 'inDegrees', this indicates whether rotational values are in degrees (yes) or radians (no).

endheader
time	pelvis_tilt	pelvis_list	pelvis_rotation	pelvis_tx	pelvis_ty	pelvis_tz	hip_flexion_r	hip_adduction_r	hip_rotation_r	knee_angle_r	knee_angle_r_beta	ankle_angle_r	hip_flexion_l	hip_adduction_l	hip_rotation_l	knee_angle_l	knee_angle_l_beta	ankle_angle_l
     13.40000000	     -2.20607411	      6.61868803	     -0.19832630	      2.27077155	      1.00053121	      1.03189065	    -11.47392387	    -10.59902838	     -7.08108161	     56.43757533	      0.98502151	    -11.74656529	     23.85937031	      8.69531226	     -4.53567256	     15.95396725	      0.27844926	     -0.92859241
     13.40666667	     -1.67060549	      6.88538330	      0.01426874	      2.27181874	      0.99658762	      1.03101090	    -11.17838128	    -10.98589764	     -6.92697811	     59.65834833	      1.04123460	    -11.03371368	     23.61154540	      8.96281165	     -5.04806730	     17.87510596	      0.31197945	     -0.75681062
     13.41333333	     -1.67114950	      6.98735567	      0.29804554	      2.27252120	      0.99180276	      1.03002459	    -10.15752493	    -11.14069452	     -6.62597276	     62.96919099	      1.09901971	    -10.37019217	     24.10050222	      9.06225159	     -5.40709791	     20.27890032	      0.35393358	     -0.30883339
     13.42000000	     -0.95724781	      7.37112894	      0.60786721	      2.27328982	      0.98761224	      1.02907086	    -10.03522692	    -11.71705977	     -6.79662807	     66.03455938	      1.15252048	     -9.78925145	     23.70892098	      9.50977979	     -5.67116958	     22.63637687	      0.39507931	      0.39943979
     13.42666667	     -1.19685462	      7.38764822	      0.99412365	      2.27356713	      0.98217985	      1.02798894	     -8.64183316	    -11.82509397	     -6.63823108	     69.25591381	      1.20874372	     -9.25650520	     24.60266729	      9.56266822	     -5.82391048	     25.61996328	      0.44715271	      1.48635946
     13.43333333	     -0.52939849	      7.79491417	      1.32568552	      2.27391650	      0.97771248	      1.02702491	     -8.36117751	    -12.49398742	     -6.88990762	     72.19202242	      1.25998848	     -8.71743464	     24.30514218	     10.06600093	     -5.94116519	     28.29244136	      0.49379626	      2.82473343
     13.44000000	     -0.97543847	      7.74133996	      1.79820636	      2.27379191	      0.97193961	      1.02585775	     -6.62751435	    -12.62468106	     -6.88948874	     75.25801190	      1.31350010	     -8.18629058	     25.39681422	     10.13627194	     -5.81946129	     31.41682492	      0.54832704	      4.43787369
     13.44666667	     -0.35611230	      8.12434543	      2.11984747	      2.27377662	      0.96748141	      1.02492417	     -6.16475381	    -13.36879808	     -7.18976112	     78.00572764	      1.36145678	     -7.60295550	     25.05243551	     10.65168268	     -5.78787767	     34.05329337	      0.59434209	      6.27482171
     13.45333333	     -0.88156668	      8.05153077	      2.64590617	      2.27329603	      0.96189101	      1.02377269	     -4.22309718	    -13.53544860	     -7.23954516	     80.83388946	      1.41081752	     -7.01547713	     26.04311254	     10.81050091	     -5.39294753	     36.91664491	      0.64431700	      8.17128568
     13.46000000	     -0.90111914	      8.23341598	      3.01880664	      2.27280921	      0.95715870	      1.02281983	     -2.81529618	    -14.07710031	     -7.34544599	     83.44191675	      1.45633618	     -6.38720281	     26.23572327	     11.19979772	     -5.10690990	     39.32425444	      0.68633772	     10.13477290
     13.46666667	     -0.92392885	      8.40581749	      3.36303523	      2.27217693	      0.95277992	      1.02194280	     -1.31438870	    -14.62073849	     -7.39435841	     85.88956025	      1.49905562	     -5.74987605	     26.27042340	     11.59200293	     -4.75916626	     41.44788538	      0.72340207	     12.08554820
     13.47333333	     -0.55147510	      8.67345853	      3.63320352	      2.27150120	      0.94931857	      1.02121184	     -0.22355210	    -15.29060342	     -7.47652130	     88.07386958	      1.53717901	     -5.06946988	     25.63986882	     12.05585744	     -4.40475371	     43.15170925	      0.75313940	     14.02246108
     13.48000000	     -0.94416610	      8.78460805	      3.92672738	      2.27055073	      0.94543914	      1.02045616	      1.93676534	    -15.75404751	     -7.27113406	     90.23409334	      1.57488203	     -4.51866368	     25.75592973	     12.38183683	     -4.02560683	     44.67885008	      0.77979304	     15.70904810
     13.48666667	     -0.50540362	      8.94675963	      4.07548186	      2.26966837	      0.94310996	      1.01999961	      3.15314544	    -16.24855695	     -7.16670746	     91.97719348	      1.60530486	     -3.92447549	     24.70000823	     12.68131856	     -3.63825247	     45.74136417	      0.79833741	     17.41772854
     13.49333333	     -0.23076461	      9.07064143	      4.21832875	      2.26864245	      0.94125327	      1.01964434	      4.65546969	    -16.62308843	     -6.92402928	     93.51389899	      1.63212543	     -3.40501502	     23.65342380	     12.91155436	     -3.25219560	     46.47674467	      0.81117222	     18.81200768
